<?xml version="1.0" standalone="no"?>
<!DOCTYPE svg PUBLIC "-//W3C//DTD SVG 20010904//EN"
 "http://www.w3.org/TR/2001/REC-SVG-20010904/DTD/svg10.dtd">
<svg version="1.0" xmlns="http://www.w3.org/2000/svg"
 width="200.000000pt" height="200.000000pt" viewBox="0 0 200.000000 200.000000"
 preserveAspectRatio="xMidYMid meet">
<metadata>
Created by potrace 1.14, written by Peter Selinger 2001-2017
</metadata>
<g transform="translate(0.000000,200.000000) scale(0.100000,-0.100000)"
fill="#000000" stroke="none">
<path d="M311 1671 c-20 -36 -13 -56 24 -74 19 -9 41 -14 49 -11 9 3 25 -5 38
-19 13 -13 102 -72 198 -129 209 -126 235 -139 245 -130 5 4 5 1 1 -5 -9 -16
-54 1 -129 50 -28 19 -114 71 -190 116 -75 45 -135 86 -132 91 3 4 -3 11 -12
14 -16 7 -33 -8 -33 -30 0 -7 62 -48 138 -93 111 -67 232 -147 172 -115 -8 5
-1 -10 16 -31 17 -22 36 -50 43 -62 6 -13 35 -38 64 -56 29 -19 68 -51 87 -72
84 -92 122 -126 135 -121 9 3 12 0 9 -8 -3 -8 15 -35 39 -60 l45 -46 -12 -42
c-17 -62 -10 -84 39 -118 49 -34 85 -38 110 -14 9 10 29 17 44 16 24 0 33 9
72 76 24 42 45 86 45 97 1 10 7 21 13 23 6 2 11 11 11 20 0 10 19 35 41 57 22
22 35 41 29 43 -7 3 -17 -1 -23 -7 -18 -18 -55 -13 -67 9 -14 27 -50 46 -59
31 -5 -8 -21 -2 -47 18 -23 16 -65 42 -94 59 -50 29 -55 30 -67 14 -12 -15
-13 -14 -2 7 13 28 3 38 -96 94 -235 132 -595 354 -620 383 -21 23 -38 34 -55
33 -14 -1 -33 2 -42 5 -11 5 -20 1 -27 -13z m429 -367 c0 -2 -9 0 -20 6 -11 6
-20 13 -20 16 0 2 9 0 20 -6 11 -6 20 -13 20 -16z m58 -30 c15 -7 20 -14 12
-14 -8 0 -26 10 -40 21 -14 11 -19 18 -12 14 6 -3 24 -13 40 -21z m192 -129
c13 -14 21 -25 18 -25 -2 0 -15 11 -28 25 -13 14 -21 25 -18 25 2 0 15 -11 28
-25z m104 -73 c6 -11 -25 -56 -41 -59 -7 -2 -10 3 -7 10 2 7 -4 22 -16 32 -28
25 -25 38 6 31 18 -5 24 -3 19 5 -6 8 -2 8 13 0 12 -6 23 -15 26 -19z m67
-109 c13 -16 12 -17 -3 -4 -10 7 -18 15 -18 17 0 8 8 3 21 -13z m92 -42 c31
-16 50 -31 44 -34 -7 -2 -37 11 -67 30 -68 41 -52 44 23 4z m112 -31 c-3 -5
-16 -10 -28 -9 -20 1 -20 2 3 9 14 4 26 8 28 9 2 1 0 -3 -3 -9z m-166 -57 c36
-21 41 -53 11 -83 -11 -11 -15 -20 -8 -20 16 0 48 31 48 47 0 7 5 13 10 13 17
0 11 -35 -10 -58 -26 -28 -34 -28 -85 3 -52 30 -60 47 -40 86 18 34 32 36 74
12z"/>
<path d="M1065 1070 c3 -5 11 -10 16 -10 6 0 7 5 4 10 -3 6 -11 10 -16 10 -6
0 -7 -4 -4 -10z"/>
<path d="M1602 1681 c-7 -4 -24 -6 -37 -4 -17 4 -29 -3 -46 -26 -15 -20 -114
-86 -277 -183 -232 -138 -253 -153 -236 -166 46 -32 154 -92 168 -92 8 0 27
23 42 50 15 28 31 50 36 50 5 0 13 11 18 24 5 15 41 43 97 76 48 28 113 67
143 85 30 19 59 36 65 38 5 2 1 16 -9 32 -16 24 -16 27 -2 22 21 -8 86 31 86
51 -1 16 -22 52 -31 52 -2 0 -10 -4 -17 -9z m-69 -118 c-4 -16 -110 -83 -352
-222 -42 -24 -79 -49 -83 -55 -6 -8 -8 -8 -8 0 0 12 21 25 272 173 86 51 159
99 162 107 8 20 15 17 9 -3z"/>
<path d="M725 1150 c-28 -16 -59 -36 -70 -45 -33 -26 -101 -68 -87 -54 6 7 12
17 12 21 0 17 -19 7 -53 -28 -34 -35 -36 -36 -58 -20 -35 24 -58 21 -31 -4 12
-12 22 -25 22 -30 0 -5 9 -12 20 -15 11 -3 20 -15 20 -25 0 -10 7 -25 15 -34
8 -8 15 -21 15 -29 0 -17 11 -38 59 -118 29 -48 37 -55 59 -51 16 3 29 -1 37
-12 19 -25 57 -23 108 7 53 31 66 62 48 112 -17 47 -15 54 29 101 22 24 40 47
40 52 0 5 12 14 26 21 26 11 26 12 9 31 -10 11 -24 20 -30 20 -18 0 -25 -25
-12 -41 10 -11 9 -11 -5 0 -15 11 -21 11 -35 0 -17 -13 -17 -12 -4 4 13 16 13
20 1 27 -8 5 -12 11 -10 13 3 2 16 12 30 22 17 12 19 15 6 11 -15 -5 -17 -4
-7 7 9 11 3 21 -30 48 -49 41 -59 45 -59 27 0 -10 -2 -10 -8 -1 -5 9 -21 4
-57 -17z m109 -43 c14 -20 22 -37 18 -37 -5 0 -19 19 -32 43 -27 49 -22 47 14
-6z m-94 -166 c0 -16 -66 -49 -111 -55 -24 -3 -37 -3 -29 0 8 3 22 8 30 11 8
4 18 5 23 5 4 -1 24 9 45 22 44 29 42 28 42 17z m78 -118 c14 -21 17 -33 10
-48 -10 -22 -78 -65 -103 -65 -19 0 -55 58 -48 77 4 10 10 5 21 -17 8 -17 23
-35 33 -41 22 -12 25 -2 5 20 -14 16 -19 34 -17 58 1 13 47 42 68 43 6 0 20
-12 31 -27z"/>
<path d="M510 848 c0 -17 -9 -32 -26 -43 -30 -19 -26 -32 5 -15 38 20 22 2
-18 -21 -59 -33 -68 -94 -46 -299 11 -111 13 -133 14 -184 1 -41 4 -47 18 -42
13 6 231 133 241 142 2 1 -14 26 -36 56 -82 110 -105 194 -68 250 16 25 16 27
-11 72 -19 33 -33 46 -45 43 -14 -4 -15 -2 -5 14 9 15 8 22 -6 36 -16 16 -17
16 -17 -9z"/>
<path d="M1378 792 l-44 -78 19 -30 c33 -54 0 -160 -80 -254 l-34 -39 38 -24
c122 -77 215 -129 220 -124 3 4 7 37 9 74 2 37 6 86 9 108 3 22 8 88 11 146 9
142 0 169 -72 209 -30 17 -54 34 -54 37 0 3 21 -7 48 -22 l47 -26 -31 29 c-17
16 -30 36 -28 45 6 41 -17 21 -58 -51z"/>
</g>
</svg>
